<?xml version="1.0" standalone="no"?>
<!DOCTYPE svg PUBLIC "-//W3C//DTD SVG 1.1//EN" "http://www.w3.org/Graphics/SVG/1.1/DTD/svg11.dtd">
<svg xmlns="http://www.w3.org/2000/svg" xmlns:xlink="http://www.w3.org/1999/xlink" version="1.1" id="Calque_1" x="0px" y="0px" viewBox="0 0 140 60" style="enable-background:new 0 0 140 60;" xml:space="preserve" width="140" height="60">
<style type="text/css">
	.st0{fill:#FFFFFF;}
	.st1{opacity:0.3;fill:#FFFFFF;enable-background:new    ;}
</style>
<path class="st0" d="M2.6,24C1.2,24,0,25.2,0,26.7v19.1c0,1.5,1.2,2.6,2.6,2.6c1.5,0,2.6-1.2,2.6-2.6V26.7C5.3,25.2,4.1,24,2.6,24z"/>
<path class="st0" d="M2.6,21.9c0.7,0,1.4-0.3,1.9-0.8C5,20.7,5.3,20,5.3,19.3S5,17.9,4.5,17.4s-1.2-0.8-1.9-0.8s-1.4,0.3-1.9,0.8  C0.3,17.9,0,18.6,0,19.3c0,0.7,0.3,1.4,0.8,1.9C1.3,21.6,1.9,21.9,2.6,21.9z"/>
<path class="st0" d="M89,24c-1.5,0-2.6,1.2-2.6,2.6v19.1c0,1.5,1.2,2.6,2.6,2.6c1.5,0,2.6-1.2,2.6-2.6v-19C91.6,25.2,90.4,24,89,24z  "/>
<path class="st0" d="M89,21.9c0.7,0,1.4-0.3,1.9-0.8s0.8-1.2,0.8-1.9c0-0.7-0.3-1.4-0.8-1.9s-1.2-0.8-1.9-0.8  c-0.7,0-1.4,0.3-1.9,0.8s-0.8,1.2-0.8,1.9c0,0.7,0.3,1.4,0.8,1.9S88.3,21.9,89,21.9z"/>
<path class="st0" d="M75.1,36.2l7.4-7.7c1-1.1,1-2.7-0.1-3.7s-2.7-1-3.7,0.1l-7.2,7.5l-7.2-7.5c-1-1.1-2.7-1.1-3.7-0.1  c-1.1,1-1.1,2.7-0.1,3.7l7.4,7.7l-7.4,7.7c-1,1.1-1,2.7,0.1,3.7c0.5,0.5,1.2,0.7,1.8,0.7c0.7,0,1.4-0.3,1.9-0.8l7.2-7.5l7.2,7.5  c0.5,0.5,1.2,0.8,1.9,0.8c0.7,0,1.3-0.2,1.8-0.7c1-1,1.1-2.7,0.1-3.7L75.1,36.2z"/>
<path class="st0" d="M20.4,24h-1.5c-5.8,0-10.5,4.7-10.5,10.5v3.3v17.3c0,1.5,1.2,2.6,2.6,2.6c1.5,0,2.6-1.2,2.6-2.6V47  c1.6,0.9,3.4,1.4,5.3,1.4h1.5c5.8,0,10.5-4.7,10.5-10.5v-3.3C31,28.8,26.2,24,20.4,24z M25.7,37.9c0,2.9-2.4,5.3-5.3,5.3h-1.5  c-2.9,0-5.3-2.4-5.3-5.3v-3.3c0-2.9,2.4-5.3,5.3-5.3h1.5c2.9,0,5.3,2.4,5.3,5.3V37.9z"/>
<path class="st0" d="M52,48.4h-7.4c-5.8,0-10.5-4.7-10.5-10.5v-3.3c0-5.8,4.7-10.5,10.5-10.5h1.5c5.8,0,10.5,4.7,10.5,10.5v2.7  c0,1.5-1.2,2.6-2.6,2.6H39.7c0.8,1.9,2.7,3.2,4.9,3.2H52c1.5,0,2.6,1.2,2.6,2.6C54.6,47.2,53.4,48.4,52,48.4z M39.3,34.7h12v-0.1  c0-2.9-2.4-5.3-5.3-5.3h-1.5C41.7,29.3,39.3,31.7,39.3,34.7L39.3,34.7z"/>
<path class="st1" d="M127.3,19.5c0,2.5-2,4.5-4.5,4.5c-0.5,0-1,0.4-1,1c0,0.5,0.4,1,1,1c3.6,0,6.4-2.9,6.4-6.4  c0-3.6-2.9-6.5-6.4-6.5c-3.6,0-6.4,2.9-6.4,6.5c0,0.5,0.4,1,1,1c0.5,0,1-0.4,1-1c0-2.5,2-4.5,4.5-4.5  C125.2,14.9,127.3,17,127.3,19.5z"/>
<path class="st1" d="M132.6,19.5c0,5.5-4.4,9.9-9.9,9.9c-0.5,0-1,0.4-1,1c0,0.5,0.4,1,1,1c6.5,0,11.8-5.3,11.8-11.8  s-5.3-11.8-11.8-11.8s-11.8,5.3-11.8,11.8c0,0.5,0.4,1,1,1c0.5,0,1-0.4,1-1c0-5.5,4.4-9.9,9.9-9.9C128.2,9.5,132.6,14,132.6,19.5z"/>
<path class="st1" d="M122.7,2.2c-9.5,0-17.3,7.8-17.3,17.3c0,0.5,0.4,1,1,1c0.5,0,1-0.4,1-1c0-8.5,6.9-15.4,15.4-15.4  s15.4,6.9,15.4,15.4s-6.9,15.4-15.4,15.4c-0.5,0-1,0.4-1,1c0,0.5,0.4,1,1,1c9.5,0,17.3-7.8,17.3-17.3C140,9.9,132.2,2.2,122.7,2.2z"/>
<path class="st0" d="M114.7,24.4c-1,0-1.8,0.6-2.2,1.3c-1.6-1.1-3.6-1.7-5.7-1.7h-1.5c-5.8,0-10.5,4.7-10.5,10.5v3.3  c0,5.8,4.7,10.5,10.5,10.5h1.5c2,0,3.9-0.6,5.5-1.6c0.4,0.9,1.3,1.6,2.4,1.6c1.5,0,2.6-1.2,2.6-2.6v-7.9v-2.9v-0.4V27  C117.3,25.6,116.2,24.4,114.7,24.4z M112.1,37.9c-0.1,2.9-2.4,5.3-5.3,5.3h-1.5c-2.9,0-5.3-2.4-5.3-5.3v-3.3c0-2.9,2.4-5.3,5.3-5.3  h1.5c2.9,0,5.3,2.4,5.3,5.3V37.9z"/>
</svg>