<svg xmlns="http://www.w3.org/2000/svg" width="79.561" height="78.711" viewBox="0 0 79.561 78.711">
    <path id="Tracé_295" data-name="Tracé 295"
          d="M528.314,579.727a28.224,28.224,0,0,1,24.174,31.354,5.968,5.968,0,0,0,5.127,6.623,5.821,5.821,0,0,0,6.494-5.139c2.566-21.841-12.868-41.839-34.418-44.592a39.2,39.2,0,0,0-43.733,34.6c-2.579,21.846,12.863,41.847,34.4,44.6a5.829,5.829,0,0,0,6.5-5.15,5.949,5.949,0,0,0-5.1-6.613,28.2,28.2,0,0,1-24.169-31.354A27.561,27.561,0,0,1,528.314,579.727Z"
          transform="translate(647.216 -485.676) rotate(90)" fill="#FB6C46"/>
</svg>
